:FULLY-SPECIFIED
:FORCE-ALL-JOINTS-BE-3DOF
:DEGREES
136
root 7.7352 16.8101 -26.3603 -6.90984 15.5056 -0.133417
lfemur -9.2709 12.8088 -17.7159
ltibia 30.0632 0 0
lfoot -11.3073 -7.04022 0
ltoes 33.5458 0 0
rfemur -56.7762 -11.9999 5.58508
rtibia 54.2586 0 0
rfoot 8.68434 2.76971 0
rtoes -0.105306 0 0
lowerback 12.2062 -2.95292 -2.35734
upperback 3.82862 -4.13301 0.974743
thorax -2.59739 -2.06201 2.80015
lowerneck -11.5546 -3.20573 0.402678
upperneck 1.06571 -4.42271 1.90667
head 2.42035 -2.1338 0.297121
lclavicle -4.67831e-14 5.62158e-15 0
lhumerus -41.4897 -20.0541 96.8389
lradius 49.1421 0 0
lwrist 11.8581 0 0
lhand 13.4295 10.5016 0
lfingers 7.12502 0 0
lthumb 38.1871 34.8084 0
rclavicle -4.67831e-14 5.62158e-15 0
rhumerus -43.5264 -6.91831 -59.8084
rradius 69.6551 0 0
rwrist -2.38995 0 0
rhand -1.78772 -16.8994 0
rfingers 7.12502 0 0
rthumb 23.8489 -119.546 0
137
root 7.69619 16.7843 -26.3362 -6.50674 16.1891 -0.0967488
lfemur -9.91569 13.5463 -17.7679
ltibia 30.4061 0 0
lfoot -11.1096 -6.29187 0
ltoes 33.47 0 0
rfemur -55.635 -11.8406 5.24415
rtibia 55.0807 0 0
rfoot 8.73987 1.64574 0
rtoes 1.64585 0 0
lowerback 11.8303 -3.10019 -2.35039
upperback 3.68116 -4.32468 0.884364
thorax -2.54519 -2.15737 2.69654
lowerneck -11.4896 -3.34938 0.296047
upperneck 1.09586 -4.60793 2.04678
head 2.43197 -2.22216 0.350801
lclavicle -4.3538e-14 5.15315e-15 0
lhumerus -41.7229 -20.8688 97.4956
lradius 49.2384 0 0
lwrist 11.8916 0 0
lhand 14.3679 11.0111 0
lfingers 7.12502 0 0
lthumb 39.049 34.8966 0
rclavicle -4.3538e-14 5.15315e-15 0
rhumerus -43.8234 -7.45835 -60.4121
rradius 70.5758 0 0
rwrist -2.98965 0 0
rhand -2.63096 -17.0396 0
rfingers 7.12502 0 0
rthumb 23.0376 -130.917 0
138
root 7.65554 16.7575 -26.311 -6.08667 16.9014 -0.0585359
lfemur -10.5876 14.3148 -17.8221
ltibia 30.7635 0 0
lfoot -10.9036 -5.512 0
ltoes 33.3909 0 0
rfemur -54.4456 -11.6747 4.88886
rtibia 55.9375 0 0
rfoot 8.79773 0.474422 0
rtoes 3.47075 0 0
lowerback 11.4385 -3.25366 -2.34314
upperback 3.52748 -4.52442 0.790179
thorax -2.49079 -2.25674 2.58857
lowerneck -11.4219 -3.49908 0.184925
upperneck 1.12729 -4.80095 2.19279
head 2.44407 -2.31425 0.406742
lclavicle -4.01562e-14 4.66498e-15 0
lhumerus -41.966 -21.7178 98.18
lradius 49.3387 0 0
lwrist 11.9266 0 0
lhand 15.3458 11.542 0
lfingers 7.12502 0 0
lthumb 39.9473 34.9885 0
rclavicle -4.01562e-14 4.66498e-15 0
rhumerus -44.1328 -8.02114 -61.0412
rradius 71.5354 0 0
rwrist -3.61461 0 0
rhand -3.50971 -17.1857 0
rfingers 7.12502 0 0
rthumb 22.1922 -142.768 0
139
root 7.61346 16.7296 -26.285 -5.65189 17.6386 -0.0189846
lfemur -11.2831 15.1102 -17.8782
ltibia 31.1334 0 0
lfoot -10.6904 -4.70482 0
ltoes 33.3091 0 0
rfemur -53.2147 -11.5029 4.52113
rtibia 56.8242 0 0
rfoot 8.85762 -0.737916 0
rtoes 5.35957 0 0
lowerback 11.0331 -3.41251 -2.33564
upperback 3.36843 -4.73116 0.692696
thorax -2.43449 -2.35959 2.47681
lowerneck -11.3518 -3.65402 0.0699104
upperneck 1.15982 -5.00074 2.34391
head 2.4566 -2.40956 0.464643
lclavicle -3.66559e-14 4.15972e-15 0
lhumerus -42.2175 -22.5966 98.8883
lradius 49.4424 0 0
lwrist 11.9628 0 0
lhand 16.358 12.0915 0
lfingers 7.12502 0 0
lthumb 40.877 35.0836 0
rclavicle -3.66559e-14 4.15972e-15 0
rhumerus -44.4531 -8.60364 -61.6923
rradius 72.5285 0 0
rwrist -4.26145 0 0
rhand -4.41924 -17.3369 0
rfingers 7.12502 0 0
rthumb 21.3172 -155.034 0
140
root 7.57018 16.701 -26.2583 -5.20466 18.3969 0.0216992
lfemur -11.9985 15.9285 -17.9358
ltibia 31.5139 0 0
lfoot -10.471 -3.87452 0
ltoes 33.225 0 0
rfemur -51.9485 -11.3261 4.14286
rtibia 57.7363 0 0
rfoot 8.91923 -1.98497 0
rtoes 7.30247 0 0
lowerback 10.616 -3.5759 -2.32792
upperback 3.20481 -4.94381 0.592421
thorax -2.37658 -2.46539 2.36186
lowerneck -11.2796 -3.8134 -0.048397
upperneck 1.19328 -5.20624 2.49936
head 2.46949 -2.5076 0.524201
lclavicle -3.30554e-14 3.63999e-15 0
lhumerus -42.4762 -23.5006 99.6169
lradius 49.5492 0 0
lwrist 12 0 0
lhand 17.3991 12.6568 0
lfingers 7.12502 0 0
lthumb 41.8333 35.1814 0
rclavicle -3.30554e-14 3.63999e-15 0
rhumerus -44.7826 -9.20282 -62.3621
rradius 73.55 0 0
rwrist -4.92682 0 0
rhand -5.35482 -17.4924 0
rfingers 7.12502 0 0
rthumb 20.4172 -167.651 0
141
root 7.52591 16.6718 -26.2309 -4.74724 19.1725 0.0633096
lfemur -12.7302 16.7653 -17.9948
ltibia 31.903 0 0
lfoot -10.2467 -3.02532 0
ltoes 33.1389 0 0
rfemur -50.6534 -11.1454 3.75598
rtibia 58.6692 0 0
rfoot 8.98224 -3.26042 0
rtoes 9.28962 0 0
lowerback 10.1894 -3.74302 -2.32003
upperback 3.03747 -5.16131 0.489863
thorax -2.31735 -2.5736 2.24428
lowerneck -11.2059 -3.97641 -0.169399
upperneck 1.2275 -5.41643 2.65835
head 2.48267 -2.60787 0.585116
lclavicle -2.93729e-14 3.10843e-15 0
lhumerus -42.7408 -24.4251 100.362
lradius 49.6584 0 0
lwrist 12.0381 0 0
lhand 18.464 13.2349 0
lfingers 7.12502 0 0
lthumb 42.8115 35.2814 0
rclavicle -2.93729e-14 3.10843e-15 0
rhumerus -45.1196 -9.81565 -63.0472
rradius 74.5949 0 0
rwrist -5.60733 0 0
rhand -6.3117 -17.6514 0
rfingers 7.12502 0 0
rthumb 19.4966 -180.556 0
142
root 7.48087 16.642 -26.2031 -4.2819 19.9615 0.105641
lfemur -13.4745 17.6167 -18.0549
ltibia 32.2989 0 0
lfoot -10.0185 -2.1614 0
ltoes 33.0514 0 0
rfemur -49.3359 -10.9615 3.3624
rtibia 59.6183 0 0
rfoot 9.04634 -4.55796 0
rtoes 11.3112 0 0
lowerback 9.75542 -3.91303 -2.312
upperback 2.86724 -5.38258 0.385528
thorax -2.25709 -2.68368 2.12467
lowerneck -11.1309 -4.14224 -0.292497
upperneck 1.26232 -5.63025 2.8201
head 2.49608 -2.70988 0.647086
lclavicle -2.56267e-14 2.56766e-15 0
lhumerus -43.01 -25.3656 101.12
lradius 49.7695 0 0
lwrist 12.0768 0 0
lhand 19.5473 13.823 0
lfingers 7.12502 0 0
lthumb 43.8065 35.3832 0
rclavicle -2.56267e-14 2.56766e-15 0
rhumerus -45.4624 -10.4391 -63.7441
rradius 75.6578 0 0
rwrist -6.29964 0 0
rhand -7.28515 -17.8132 0
rfingers 7.12502 0 0
rthumb 18.5601 -193.684 0
143
root 7.43529 16.6119 -26.1749 -3.8109 20.7602 0.148486
lfemur -14.2279 18.4784 -18.1156
ltibia 32.6996 0 0
lfoot -9.78749 -1.28698 0
ltoes 32.9628 0 0
rfemur -48.0024 -10.7754 2.96404
rtibia 60.5789 0 0
rfoot 9.11122 -5.87129 0
rtoes 13.3573 0 0
lowerback 9.31617 -4.08511 -2.30387
upperback 2.69493 -5.60654 0.279924
thorax -2.1961 -2.7951 2.00361
lowerneck -11.0549 -4.31009 -0.417091
upperneck 1.29756 -5.84668 2.98381
head 2.50965 -2.81313 0.709809
lclavicle -2.18348e-14 2.02031e-15 0
lhumerus -43.2825 -26.3176 101.887
lradius 49.8819 0 0
lwrist 12.116 0 0
lhand 20.6438 14.4183 0
lfingers 7.12502 0 0
lthumb 44.8137 35.4862 0
rclavicle -2.18348e-14 2.02031e-15 0
rhumerus -45.8094 -11.0701 -64.4495
rradius 76.7336 0 0
rwrist -7.00036 0 0
rhand -8.27044 -17.977 0
rfingers 7.12502 0 0
rthumb 17.6122 -206.971 0
144
root 7.38938 16.5816 -26.1466 -3.3365 21.5646 0.191641
lfemur -14.9868 19.3463 -18.1768
ltibia 33.1032 0 0
lfoot -9.55483 -0.406262 0
ltoes 32.8735 0 0
rfemur -46.6593 -10.5879 2.5628
rtibia 61.5464 0 0
rfoot 9.17656 -7.19408 0
rtoes 15.4182 0 0
lowerback 8.87376 -4.25842 -2.29569
upperback 2.52138 -5.83211 0.173559
thorax -2.13467 -2.90732 1.88167
lowerneck -10.9784 -4.47914 -0.542584
upperneck 1.33305 -6.06466 3.1487
head 2.52332 -2.91712 0.772985
lclavicle -1.80157e-14 1.46901e-15 0
lhumerus -43.557 -27.2764 102.66
lradius 49.9952 0 0
lwrist 12.1555 0 0
lhand 21.7482 15.0179 0
lfingers 7.12502 0 0
lthumb 45.8281 35.59 0
rclavicle -1.80157e-14 1.46901e-15 0
rhumerus -46.1589 -11.7057 -65.16
rradius 77.8173 0 0
rwrist -7.70614 0 0
rhand -9.26284 -18.142 0
rfingers 7.12502 0 0
rthumb 16.6575 -220.355 0
145
root 7.34335 16.5511 -26.1181 -2.86098 22.3708 0.234899
lfemur -15.7474 20.2163 -18.2381
ltibia 33.5077 0 0
lfoot -9.32162 0.476562 0
ltoes 32.7841 0 0
rfemur -45.313 -10.4 2.16061
rtibia 62.5163 0 0
rfoot 9.24207 -8.52002 0
rtoes 17.4841 0 0
lowerback 8.43028 -4.43216 -2.28748
upperback 2.34742 -6.05822 0.0669407
thorax -2.07309 -3.01981 1.75944
lowerneck -10.9017 -4.64861 -0.668376
upperneck 1.36863 -6.28317 3.31399
head 2.53703 -3.02137 0.836311
lclavicle -1.41874e-14 9.16406e-16 0
lhumerus -43.832 -28.2376 103.435
lradius 50.1087 0 0
lwrist 12.195 0 0
lhand 22.8552 15.6189 0
lfingers 7.12502 0 0
lthumb 46.845 35.694 0
rclavicle -1.41874e-14 9.16406e-16 0
rhumerus -46.5093 -12.3428 -65.8721
rradius 78.9034 0 0
rwrist -8.4136 0 0
rhand -10.2576 -18.3073 0
rfingers 7.12502 0 0
rthumb 15.7005 -233.77 0
